<?xml version="1.0" standalone="no"?>
<!DOCTYPE svg PUBLIC "-//W3C//DTD SVG 20010904//EN"
 "http://www.w3.org/TR/2001/REC-SVG-20010904/DTD/svg10.dtd">
<svg version="1.0" xmlns="http://www.w3.org/2000/svg"
 width="225.000000pt" height="225.000000pt" viewBox="0 0 225.000000 225.000000"
 preserveAspectRatio="xMidYMid meet">

<g transform="translate(0.000000,225.000000) scale(0.100000,-0.100000)"
fill="#000000" stroke="none">
<path d="M386 2240 c-93 -28 -146 -150 -115 -265 19 -69 223 -245 284 -245 27
0 154 88 217 151 77 77 95 176 48 269 -22 44 -45 65 -93 85 -46 19 -75 19
-133 -1 -42 -14 -49 -14 -85 0 -43 17 -78 19 -123 6z m114 -145 c19 -14 41
-25 50 -25 8 0 32 11 52 25 46 31 82 32 102 3 40 -57 8 -120 -99 -193 l-54
-38 -53 40 c-104 79 -127 117 -106 172 18 48 56 54 108 16z"/>
<path d="M1095 1878 c-11 -7 -92 -76 -179 -156 l-159 -143 -13 29 c-6 16 -19
32 -29 36 -9 3 -85 6 -169 6 -135 0 -155 -2 -169 -18 -15 -16 -17 -46 -17
-214 l0 -195 -110 -103 c-117 -109 -129 -131 -90 -170 17 -17 33 -20 115 -20
l95 0 0 -440 0 -441 25 -24 24 -25 706 0 706 0 24 25 25 24 0 441 0 440 95 0
c82 0 98 3 115 20 33 33 25 61 -37 121 -110 106 -879 796 -900 808 -26 14 -33
13 -58 -1z m425 -493 l354 -320 -42 -6 c-23 -3 -50 -14 -62 -24 -20 -18 -20
-28 -20 -462 l0 -443 -625 0 -625 0 0 400 0 400 460 0 c447 0 461 1 480 20 26
26 25 62 -1 86 -20 18 -48 19 -542 24 l-521 5 373 337 c368 332 374 337 395
320 12 -9 181 -161 376 -337z m-900 107 c0 -35 -6 -44 -64 -95 -36 -31 -67
-57 -70 -57 -8 0 -7 175 1 183 3 4 35 7 70 7 l63 0 0 -38z"/>
<path d="M1556 1039 c-14 -11 -26 -31 -26 -43 0 -26 38 -66 64 -66 21 0 66 44
66 65 0 20 -44 65 -63 65 -8 0 -26 -9 -41 -21z"/>
<path d="M885 841 c-46 -21 -101 -79 -123 -130 -8 -20 -14 -65 -14 -102 0 -96
29 -155 113 -233 73 -67 241 -186 264 -186 23 0 191 119 264 186 78 72 110
133 113 216 8 196 -160 322 -327 245 l-50 -24 -50 24 c-61 28 -134 30 -190 4z
m140 -120 c22 -10 46 -25 54 -34 21 -26 66 -20 116 15 73 52 133 40 171 -34
44 -86 -5 -168 -172 -289 l-67 -48 -60 42 c-95 66 -174 144 -188 184 -23 70 7
149 66 173 29 12 36 12 80 -9z"/>
</g>
</svg>
