<?xml version="1.0" standalone="no"?>
<!DOCTYPE svg PUBLIC "-//W3C//DTD SVG 20010904//EN"
 "http://www.w3.org/TR/2001/REC-SVG-20010904/DTD/svg10.dtd">
<svg version="1.0" xmlns="http://www.w3.org/2000/svg"
 width="225.000000pt" height="225.000000pt" viewBox="0 0 225.000000 225.000000"
 preserveAspectRatio="xMidYMid meet">

<g transform="translate(0.000000,225.000000) scale(0.100000,-0.100000)"
fill="#000000" stroke="none">
<path d="M1035 2104 c-240 -38 -451 -222 -519 -454 -26 -86 -31 -212 -12 -300
20 -96 77 -211 261 -525 81 -137 181 -308 222 -380 41 -72 82 -136 91 -143 20
-16 74 -16 94 0 9 7 41 56 70 108 30 52 113 194 185 315 253 429 295 511 319
626 19 86 14 213 -12 299 -59 202 -232 374 -434 434 -56 17 -210 28 -265 20z
m209 -314 c40 -16 69 -36 109 -80 70 -75 91 -134 85 -234 -8 -117 -71 -211
-176 -263 -48 -24 -70 -28 -137 -28 -67 0 -89 4 -137 28 -62 31 -116 84 -149
149 -31 60 -37 168 -14 237 24 72 109 164 178 190 70 27 170 27 241 1z"/>
</g>
</svg>
